<svg xmlns="http://www.w3.org/2000/svg" width="18" height="18"><path d="M17.27 8.191c.34-.346.46-.854.314-1.327a1.248 1.248 0 00-1.001-.88l-4.187-.636a.55.55 0 01-.412-.312l-1.872-3.96A1.229 1.229 0 009 .355c-.475 0-.902.276-1.112.721l-1.872 3.96a.55.55 0 01-.412.312l-4.187.636c-.47.07-.854.408-1 .88-.148.473-.028.98.313 1.327l3.029 3.082c.13.131.188.32.158.506l-.715 4.352c-.08.489.108.974.493 1.266.384.292.885.33 1.306.098l3.744-2.055a.528.528 0 01.51 0l3.744 2.055c.183.1.381.15.578.15.256 0 .511-.083.728-.248.385-.292.574-.777.493-1.266l-.715-4.352a.588.588 0 01.158-.506zm-3.869 3.71l.715 4.352a.573.573 0 01-.218.56.52.52 0 01-.576.043L9.577 14.8a1.203 1.203 0 00-1.154 0l-3.744 2.055a.521.521 0 01-.577-.044.573.573 0 01-.218-.559l.715-4.352a1.33 1.33 0 00-.356-1.145l-3.03-3.082a.577.577 0 01-.138-.586.544.544 0 01.441-.39l4.187-.634c.404-.061.753-.326.934-.708l1.872-3.96a.536.536 0 01.982 0l1.872 3.96c.18.382.53.647.934.708l4.186.635c.211.032.376.177.442.389a.578.578 0 01-.138.586l-3.03 3.081a1.33 1.33 0 00-.356 1.146z" stroke="#000" stroke-width=".7"/></svg>