<svg width="24" height="24" xmlns="http://www.w3.org/2000/svg"><path d="M22.005 10.18c-.088-.266-.368-.731-1.263-.86l-3.564-.513c-.875-.127-1.948-.897-2.34-1.685l-1.594-3.198C12.844 3.12 12.31 3 12.028 3c-.283 0-.816.12-1.217.924L9.217 7.122c-.392.787-1.463 1.558-2.34 1.685l-3.563.512c-.896.13-1.176.595-1.263.861-.087.267-.138.806.51 1.432l2.58 2.49c.634.612 1.043 1.86.893 2.724l-.608 3.515c-.118.68.072 1.076.252 1.288.367.43 1.024.49 1.716.13l3.187-1.66c.744-.386 2.15-.387 2.894 0l3.187 1.66c.308.16.6.241.873.241.339 0 .638-.131.842-.37.18-.213.37-.609.253-1.288l-.608-3.516c-.15-.864.26-2.112.893-2.724l2.58-2.49c.647-.626.597-1.165.51-1.432z"/></svg>