<svg width="21" height="20" xmlns="http://www.w3.org/2000/svg"><g><path d="M8.514 6.709a.666.666 0 0 1-.09-.006c-1-.129-2.437-.52-3.596-1.651a2.852 2.852 0 0 1-.724-2.953C4.47.986 5.47.214 6.776.034 7.48-.06 8.198.172 8.761.677c.529.478.936.944 1.24 1.436.276-.408.63-.815 1.072-1.24.736-.707 1.775-.988 2.703-.736 1.119.304 1.948 1.103 2.217 2.138a2.88 2.88 0 0 1-.776 2.776c-.903.88-2.07 1.431-3.47 1.637a.699.699 0 0 1-.204-1.383c1.104-.162 2.011-.583 2.698-1.253a1.46 1.46 0 0 0 .4-1.425c-.144-.552-.592-.968-1.23-1.141-.457-.122-.991.031-1.37.394-.833.802-1.249 1.459-1.388 2.2a.7.7 0 0 1-1.374 0c-.144-.763-.447-1.457-1.454-2.364-.25-.226-.572-.338-.858-.297-.777.107-1.338.514-1.537 1.118a1.466 1.466 0 0 0 .375 1.515c.928.907 2.151 1.182 2.797 1.265a.699.699 0 0 1-.088 1.392zM16.476 19.719H3.569c-.782 0-1.417-.704-1.417-1.569V9.58h15.74v8.57c0 .865-.635 1.569-1.416 1.569zM3.549 10.977v7.173c0 .114.05.173.061.181l12.863-.01c-.025-.001.021-.06.021-.17l-.018-7.174H3.549z"/><path d="M17.304 10.902H2.74A2.725 2.725 0 0 1 .019 8.18v-.146A2.725 2.725 0 0 1 2.74 5.312h14.563a2.725 2.725 0 0 1 2.722 2.722v.146a2.725 2.725 0 0 1-2.722 2.722zM2.74 6.709c-.73 0-1.325.594-1.325 1.325v.146c0 .73.594 1.324 1.325 1.324h14.563c.73 0 1.325-.594 1.325-1.324v-.146c0-.731-.595-1.325-1.325-1.325H2.74z"/></g></svg>