<svg width="24" height="24" xmlns="http://www.w3.org/2000/svg"><path d="M13.286 23c.547 0 1.037-.365 1.167-.88l.072-.303c.086-.44.13-.893.13-1.334 0-1.095-.116-1.938-.36-2.592l-.649-1.674 2.03-.012c1.959-.013 4.94-.026 5.227-.026.518-.025.72-.176.893-.427.173-.265.216-.529.201-.705-.13-.717-1.77-7.198-2.044-8.167-.1-.151-.245-.29-.403-.378-.274-.163-.288-.163-.418-.163H7.253l.015 9.425c2.865.78 4.967 3.108 5.04 5.801v.265c-.015.566.302 1.17.978 1.17zM4.85 15.728H2.763A.762.762 0 012 14.96V6.853c0-.425.339-.767.763-.767h2.086c.424 0 .763.342.763.767v8.107a.762.762 0 01-.763.768zM6.21 4.994h-.18.18c-.09 0-.09 0 0 0z"/></svg>