<svg width="20" height="19" xmlns="http://www.w3.org/2000/svg"><path d="M17.979 17.658H2.021V8.33l7.727 4.489c.01.009.018.009.027.009.01.009.027.009.036.018a.128.128 0 00.054.018l.036.008a.438.438 0 00.108.01h.045c.018 0 .036-.01.054-.01.009 0 .027-.008.036-.008a.128.128 0 01.054-.018c.009-.01.027-.01.036-.018.009 0 .018-.01.027-.01l7.718-4.488v9.328zm-14.69-9.76l-1.196-.693 1.196-.692v1.385h0zm1.34-5.874H15.37c.252 0 .333.08.333.324v6.144L10 11.802l-5.694-3.31V2.348c0-.252.072-.324.324-.324zm12.082 4.489l1.196.692-1.196.693V6.513zm1.268-.432l-1.268-.738V1.52a.49.49 0 00-.153-.36.504.504 0 00-.36-.153H3.802a.49.49 0 00-.36.153.504.504 0 00-.153.36v3.814l-1.268.747-1.017.504V18.17c0 .072.018.135.036.198 0 .009.01.009.01.018a.52.52 0 00.44.297h16.993a.503.503 0 00.504-.504V6.63l-1.008-.55zM7.126 8.37a.625.625 0 110-1.248h3.625a.624.624 0 010 1.248H7.125zm5.624-3.123H7.126a.625.625 0 110-1.248h5.625a.624.624 0 010 1.248h0z" stroke="#000" stroke-width=".2" stroke-linejoin="round"/></svg>