<?xml version="1.0" encoding="UTF-8"?>
<svg width="21px" height="19px" viewBox="0 0 21 19" version="1.1" xmlns="http://www.w3.org/2000/svg" xmlns:xlink="http://www.w3.org/1999/xlink">
    <!-- Generator: Sketch 57.1 (83088) - https://sketch.com -->
    <title>bullshit2</title>
    <desc>Created with Sketch.</desc>
    <g id="页面-1" stroke="none" stroke-width="1" fill="none" fill-rule="evenodd">
        <g id="文章详情_v2.12.0" transform="translate(-213.000000, -779.000000)" fill="#B2B2B2" fill-rule="nonzero">
            <g id="bullshit2" transform="translate(223.500000, 788.000000) scale(1, -1) translate(-223.500000, -788.000000) translate(213.000000, 778.000000)">
                <path d="M11.5730935,0.429982339 C12.1341367,0.429982339 12.6361226,0.815485665 12.7690013,1.36050763 L12.8428228,1.67954487 C12.9314085,2.14480752 12.9757014,2.62336337 12.9757014,3.08862603 C12.9757014,4.24513603 12.857587,5.13578167 12.6065941,5.82702902 L11.9422009,7.59502707 L14.0239662,7.60832028 C16.03191,7.6216135 19.0881187,7.63490672 19.3834046,7.63490672 C19.9149191,7.66149315 20.1216192,7.82101179 20.2987908,8.08687613 C20.4759623,8.36603372 20.5202552,8.64519131 20.5054908,8.83129638 C20.3726122,9.58900984 18.6894828,16.4350173 18.4089612,17.4585951 C18.3056112,17.6181137 18.1579682,17.7643391 17.995561,17.8573917 C17.7150395,18.0302035 17.7002752,18.0302035 17.5673965,18.0302035 L5.38685474,18.0302035 L5.40161903,8.07358291 C8.33971337,7.24940337 10.4953001,4.79015796 10.5691216,1.94540924 L10.5691216,1.66625165 C10.5543573,1.06805682 10.8791718,0.429982339 11.5730935,0.429982339 L11.5730935,0.429982339 Z M2.92169002,8.11217264 L0.782013703,8.11217264 C0.34756165,8.11217264 0,8.47358243 0,8.92260672 L0,17.4869237 C0,17.935948 0.347561629,18.2973578 0.782013703,18.2973578 L2.92169002,18.2973578 C3.35614207,18.2973578 3.7037037,17.935948 3.7037037,17.4869237 L3.7037037,8.92260672 C3.7037037,8.47358243 3.35614207,8.11217264 2.92169002,8.11217264 Z M4.317075,19.45072 L4.13188982,19.45072 L4.317075,19.45072 C4.22448241,19.45072 4.22448241,19.45072 4.317075,19.45072 Z" id="形状"></path>
            </g>
        </g>
    </g>
</svg>