<svg width="14" height="14" xmlns="http://www.w3.org/2000/svg"><path d="M4.063 6.915c-.008.011-.018.022-.021.037l-.667 2.477a.43.43 0 00.106.408.418.418 0 00.402.106l2.427-.67c.003 0 .006.003.008.003.027 0 .055-.01.076-.032l6.491-6.574c.193-.196.298-.462.298-.751 0-.328-.137-.656-.378-.9l-.613-.623a1.261 1.261 0 00-.89-.383c-.286 0-.548.108-.74.302l-6.49 6.577c-.007.007-.004.015-.009.023zM11.195.959c.1-.103.294-.087.41.03l.613.623a.34.34 0 01.101.236c0 .07-.026.134-.07.179l-.646.653-1.045-1.076.637-.645zM9.9 2.27l1.046 1.076L6.27 8.084 5.218 7.016 9.9 2.271zM4.702 7.684l.902.915-1.242.344.34-1.26zm8.034-2.76a.453.453 0 00-.449.455v6.32a.579.579 0 01-.576.582H1.478a.58.58 0 01-.576-.583V1.502c0-.321.26-.584.576-.584H8.07a.45.45 0 00.447-.453A.452.452 0 008.07.01H1.409C.635.011.006.648.006 1.433v10.333c0 .785.63 1.422 1.403 1.422h10.37c.773 0 1.402-.637 1.402-1.422v-6.39a.448.448 0 00-.445-.453z"/></svg>