<svg width="16" height="24" xmlns="http://www.w3.org/2000/svg"><g stroke="#000" stroke-width=".2"><path d="M8 14.85a.904.904 0 01-.36-.076L1.352 11.95a.752.752 0 01-.418-.45.689.689 0 01.079-.592l6.289-9.647A.829.829 0 018 .9c.286 0 .55.137.697.362l6.289 9.646a.678.678 0 01.079.593.771.771 0 01-.417.45l-6.29 2.823A.902.902 0 018 14.85zm-5.143-3.872l5.102 2.327 5.182-2.327L8 3.086l-5.143 7.892z"/><path d="M8 23.1a.839.839 0 01-.68-.32l-6.288-8.417a.634.634 0 01.082-.861.907.907 0 01.954-.156L7.96 15.88l5.971-2.521a.907.907 0 01.954.155c.25.236.285.592.083.862l-6.29 8.404c-.15.201-.405.32-.679.32zm-4.015-7.371L8 21.103l4.019-5.368-3.661 1.547a.909.909 0 01-.712 0L3.985 15.73z"/></g></svg>