<svg width="22" height="20" xmlns="http://www.w3.org/2000/svg"><path d="M20.921 8.59a.575.575 0 01-.801.134l-9.154-6.539-6.2 4.38v11.958H17.17V9.596a.575.575 0 011.149 0v9.502a.575.575 0 01-.575.574H4.191a.575.575 0 01-.574-.574V7.436L1.814 8.724a.573.573 0 01-.802-.135.573.573 0 01.135-.801l9.486-6.776a.575.575 0 01.667 0l9.487 6.776c.26.186.319.543.134.801zM9.893 8.361L7.22 10.143a.575.575 0 01-.637-.955l3.092-2.06a.576.576 0 01.75.099l1.44 1.635 2.806-2.397a.574.574 0 11.746.873l-3.237 2.765a.576.576 0 01-.804-.056L9.893 8.362zm-2.51 3.96a.575.575 0 011.149 0v4.602a.575.575 0 01-1.15 0v-4.602zm3.01 0a.575.575 0 011.148 0v4.602a.575.575 0 01-1.149 0v-4.602zm3.275-.677a.575.575 0 011.149 0v5.279a.575.575 0 01-1.15 0v-5.28z" stroke="#000" stroke-width=".2"/></svg>