<svg width="20" height="20" xmlns="http://www.w3.org/2000/svg"><g><path d="M3.704 19.216a.313.313 0 0 1-.137-.033c-.446-.208-.54-.506-.54-.644v-3.607H1.612c-1.1 0-1.612-.516-1.612-1.649V1.65C0 .517.478 0 1.612 0h16.374c1.1 0 1.613.517 1.613 1.65v11.602c0 1.134-.479 1.65-1.613 1.65h-10.4l-3.64 4.21a.33.33 0 0 1-.242.105zM1.512 1.224c-.194 0-.255.047-.255.291v11.737c0 .239.262.46.59.46h1.895c.205 0 .342.137.342.342v3.124l3.124-3.396a.376.376 0 0 1 .241-.104h10.708c.158 0 .255-.037.255-.291V1.515c0-.224-.148-.291-.255-.291H1.512z"/><path d="M4.597 5.652h7.082c.462 0 .837-.3.837-.67 0-.37-.375-.67-.837-.67H4.597c-.463 0-.837.3-.837.67 0 .37.374.67.837.67zm9.91 0h.933a.67.67 0 0 0 0-1.34h-.934a.67.67 0 1 0 0 1.34zm1.069 3.118H4.023a.67.67 0 1 0 0 1.341h11.55a.67.67 0 0 0 .003-1.34z"/></g></svg>