<svg width="20" height="22" xmlns="http://www.w3.org/2000/svg"><path d="M17.019 21h-14a2 2 0 01-2-2V3a2 2 0 012-2h14a2 2 0 012 2v16.01c0 1.1-.89 1.99-2 1.99zm1-18c0-.55-.45-1-1-1h-14c-.55 0-1 .45-1 1v16.01c0 .55.45 1 1 1h14c.55 0 1-.45 1-1V3zm-3.08 3.41a4.996 4.996 0 01-4.92 4.09c-2.46 0-4.49-1.76-4.92-4.09a1.003 1.003 0 01.42-1.91c.55 0 1 .45 1 1 0 .33-.17.63-.42.81a4 4 0 003.92 3.19 4 4 0 003.92-3.19c-.25-.19-.42-.47-.42-.81 0-.55.45-1 1-1a1.003 1.003 0 01.42 1.91z" stroke="#000" stroke-width=".3"/></svg>