<svg width="24" height="24" xmlns="http://www.w3.org/2000/svg"><g><path d="M11.286 5.6c.547 0 1.037.373 1.167.9l.072.31c.086.45.13.913.13 1.363 0 1.119-.116 1.98-.36 2.65l-.649 1.71 2.03.013c1.959.013 4.94.026 5.227.026.518.026.72.18.893.437.173.27.216.54.201.72-.13.734-1.77 7.359-2.044 8.35a1.22 1.22 0 01-.403.385c-.274.167-.288.167-.418.167H5.253l.015-9.634c2.865-.798 4.967-3.178 5.04-5.93v-.27c-.015-.58.302-1.197.978-1.197zM2.85 13.034H.763a.771.771 0 00-.763.784v8.288c0 .434.339.784.763.784h2.086c.424 0 .763-.35.763-.784v-8.288a.771.771 0 00-.763-.784zm1.361 10.97h-.18.18c-.09 0-.09 0 0 0zM18.8 0l1.073 1.845a.82.82 0 00.524.399l2.003.51-1.335 1.651a.886.886 0 00-.197.647l.157 2.148-1.898-.826a.873.873 0 00-.327-.069.873.873 0 00-.327.069l-1.898.826.157-2.148a.948.948 0 00-.197-.647L15.2 2.753l2.003-.509a.82.82 0 00.524-.4L18.8 0z"/></g></svg>