<?xml version="1.0" encoding="UTF-8"?>
<svg width="23px" height="23px" viewBox="0 0 23 23" version="1.1" xmlns="http://www.w3.org/2000/svg" xmlns:xlink="http://www.w3.org/1999/xlink">
    <!-- Generator: Sketch 57.1 (83088) - https://sketch.com -->
    <title>great2备份</title>
    <desc>Created with Sketch.</desc>
    <g id="页面-1" stroke="none" stroke-width="1" fill="none" fill-rule="evenodd">
        <g id="文章详情_v2.12.0" transform="translate(-149.000000, -774.000000)" fill="#B2B2B2" fill-rule="nonzero">
            <g id="great2备份" transform="translate(149.000000, 774.000000)">
                <path d="M11.2863472,5.6 C11.8334894,5.6 12.3230376,5.97304559 12.4526239,6.50045488 L12.5246163,6.80918227 C12.6110072,7.25940973 12.6542026,7.7225008 12.6542026,8.17272825 C12.6542026,9.29186504 12.5390148,10.153729 12.2942406,10.8226383 L11.6463091,12.5335026 L13.6764946,12.5463663 C15.6346876,12.5592299 18.6151727,12.5720935 18.9031422,12.5720935 C19.4214875,12.5978208 19.6230662,12.7521845 19.7958479,13.0094573 C19.9686297,13.2795938 20.0118251,13.5497303 19.9974266,13.7298213 C19.8678403,14.4630488 18.2264138,21.087824 17.9528427,22.0783244 C17.8520533,22.2326881 17.7080685,22.3741882 17.5496853,22.4642337 C17.2761142,22.631461 17.2617157,22.631461 17.1321294,22.631461 L5.25338471,22.631461 L5.26778319,12.9965937 C8.13308041,12.1990479 10.2352582,9.81927431 10.3072506,7.0664551 L10.3072506,6.79631863 C10.2928522,6.21745478 10.6096187,5.6 11.2863472,5.6 L11.2863472,5.6 Z M2.84929935,13.0339364 L0.76263776,13.0339364 C0.33895012,13.0339364 0,13.383667 0,13.8181809 L0,22.1057376 C0,22.5402514 0.3389501,22.8899821 0.76263776,22.8899821 L2.84929935,22.8899821 C3.27298699,22.8899821 3.61193709,22.5402514 3.61193709,22.1057376 L3.61193709,13.8181809 C3.61193709,13.383667 3.27298699,13.0339364 2.84929935,13.0339364 Z M4.2101109,24.0038158 L4.02951404,24.0038158 L4.2101109,24.0038158 C4.11981247,24.0038158 4.11981247,24.0038158 4.2101109,24.0038158 Z" id="形状"></path>
                <path d="M18.8,0 L19.8734545,1.84474188 C19.9912727,2.05124284 20.1745454,2.18891013 20.3970909,2.24397705 L22.4,2.75334609 L21.0647273,4.40535373 C20.9207273,4.58432123 20.8421818,4.81835563 20.8683636,5.05239005 L21.0254545,7.2 L19.1272727,6.37399619 C19.0225455,6.33269601 18.9178182,6.30516255 18.8,6.30516252 C18.6821818,6.30516249 18.5774545,6.33269598 18.4727273,6.37399619 L16.5745455,7.2 L16.7316364,5.05239005 C16.7447273,4.81835563 16.6792727,4.58432123 16.5352727,4.40535373 L15.2,2.75334609 L17.2029091,2.24397705 C17.4254546,2.18891013 17.6087273,2.05124281 17.7265455,1.84474188 L18.8,0 L18.8,0 Z" id="形状"></path>
            </g>
        </g>
    </g>
</svg>