<svg t="1576745406530" class="icon" viewBox="0 0 1024 1024" version="1.1" xmlns="http://www.w3.org/2000/svg" p-id="6592" width="200" height="200"><path d="M933.43288889 350.09422222H657.18044445c14.10844445-41.07377778 19.11466667-83.85422222 21.9591111-125.15555555l0.11377778-1.70666667c3.41333333-49.26577778 8.192-116.84977778-33.67822222-164.97777778-19.22844445-22.07288889-52.33777778-38.00177778-84.42311111-40.61866667-27.87555555-2.27555555-53.93066667 7.96444445-73.61422222 28.78577778-30.37866667 32.19911111-36.97777778 73.84177778-42.78044445 110.47822222-2.16177778 13.42577778-4.20977778 26.16888889-7.168 37.20533334-12.288 45.056-31.40266667 81.00977778-56.77511111 106.95111111-29.12711111 29.696-68.94933333 48.35555555-104.67555555 49.152h-183.18222222c-38.79822222 0-70.31466667 31.51644445-70.31466667 70.31466667v472.51911111c0 38.79822222 31.51644445 70.31466667 70.31466667 70.31466667H835.12888889c37.31911111 0 67.92533333-29.12711111 70.20088889-65.87733334l98.304-473.20177778v-3.75466666c0.11377778-38.912-31.40266667-70.42844445-70.20088889-70.42844445z m-837.85955556 72.81777778h95.80088889v467.51288889H95.57333333V422.912z m737.16622222 466.26133333v1.25155556H263.05422222V422.912h21.16266667c2.84444445 0 5.46133333-0.34133333 8.07822222-0.91022222 50.40355555-5.12 101.83111111-30.49244445 140.62933334-70.20088889 34.13333333-34.816 59.27822222-81.46488889 74.97955555-138.69511111 4.096-14.90488889 6.48533333-30.15111111 8.87466667-45.056 4.55111111-28.78577778 8.87466667-56.09244445 23.89333333-71.90755556 5.68888889-6.03022222 11.15022222-6.37155555 14.67733333-6.144 13.08444445 1.024 28.55822222 7.96444445 35.38488889 15.81511111 22.07288889 25.37244445 18.65955555 73.50044445 16.04266667 112.18488889l-0.11377778 1.70666667c-3.52711111 51.08622222-10.58133333 104.33422222-37.31911111 147.456l0.11377778 0.11377778c-3.41333333 5.57511111-5.46133333 12.06044445-5.46133333 19.11466666 0 20.13866667 16.27022222 36.40888889 36.40888888 36.40888889h329.38666667l-97.05244445 466.37511111z" p-id="6593"></path></svg>