<svg t="1578398552448" class="icon" viewBox="0 0 1024 1024" version="1.1" xmlns="http://www.w3.org/2000/svg" p-id="4689" width="200" height="200"><path d="M542.016 666.016l-179.008 179.008q-39.008 38.016-92.992 38.016t-92-38.016q-39.008-39.008-39.008-92.992t39.008-92.992l178.016-179.008q11.008-10.016 11.008-24.992t-10.496-25.504-25.504-10.496-24.992 11.008L127.04 608.064q-60 60-60 144t59.488 143.488 143.488 59.488 144-59.008l179.008-179.008q10.016-11.008 10.016-26.016t-10.496-25.504-25.504-10.496-24.992 11.008zM899.488 122.496q-59.488-59.488-143.488-59.488t-144 60l-179.008 179.008q-10.016 10.016-10.016 24.992t10.496 25.504 25.504 10.496 24.992-10.016l179.008-179.008q39.008-39.008 92.992-39.008t92.512 38.496 38.496 92.992-39.008 92.512l-178.016 179.008q-11.008 10.016-11.008 24.992t10.496 25.504 25.504 10.496 26.016-10.016l179.008-179.008q59.008-60 59.008-144t-59.488-143.488zM486.016 588l102.016-102.016q11.008-10.016 11.008-24.992t-10.496-25.504-25.504-10.496-24.992 11.008l-102.016 102.016q-11.008 10.016-11.008 24.992t10.496 25.504 25.504 10.496 24.992-11.008z" p-id="4690"></path></svg>