<?xml version="1.0" encoding="UTF-8"?>
<svg width="9px" height="10px" viewBox="0 0 9 10" version="1.1" xmlns="http://www.w3.org/2000/svg" xmlns:xlink="http://www.w3.org/1999/xlink">
    <g stroke="none" stroke-width="1" fill="none" fill-rule="evenodd">
        <g transform="translate(-260.000000, -402.000000)" fill-rule="nonzero">
            <g transform="translate(260.000000, 402.000000)">
                <path d="M4.5,0 C2.85054152,0 1.5,1.41175138 1.5,3.1384842 L1.5,6.09228503 C1.5,7.81788483 2.84945848,9.23076923 4.5,9.23076923 C6.15054152,9.23076923 7.5,7.81901785 7.5,6.09228503 L7.5,3.1384842 C7.5,1.4128844 6.14945848,0 4.5,0 M4.5,1.1081002 C5.5700361,1.1081002 6.44079422,2.01905373 6.44079422,3.1384842 L6.44079422,6.09228503 C6.44079422,7.2117155 5.5700361,8.12266903 4.5,8.12266903 C3.4299639,8.12266903 2.55920578,7.2117155 2.55920578,6.09228503 L2.55920578,3.1384842 C2.55920578,2.01905373 3.4299639,1.1081002 4.5,1.1081002" fill="#D0D9DA"></path>
                <path d="M4.79613691,10 L4.20386309,10 C2.0978783,10 0.375,8.31128016 0.375,6.24704946 L0.375,5.14857228 C0.375,4.43208028 0.972778223,3.84615385 1.70376301,3.84615385 L7.29623699,3.84615385 C8.02722178,3.84615385 8.625,4.43208028 8.625,5.14857228 L8.625,6.24597041 C8.625,8.31020111 6.9021217,10 4.79613691,10" fill="#FDD136"></path>
                <path d="M5.625,6.53846154 C5.625,7.17555451 5.12116564,7.69230769 4.5,7.69230769 C3.87883436,7.69230769 3.375,7.17555451 3.375,6.53846154 C3.375,5.90136857 3.87883436,5.38461538 4.5,5.38461538 C5.12116564,5.38461538 5.625,5.90136857 5.625,6.53846154" fill="#563E24"></path>
                <path d="M4.5,8.46153846 C4.29409509,8.46153846 4.125,8.32279377 4.125,8.15384615 L4.125,7.23076923 C4.125,7.06182161 4.29409509,6.92307692 4.5,6.92307692 C4.70590491,6.92307692 4.875,7.06182161 4.875,7.23076923 L4.875,8.15384615 C4.875,8.32373761 4.70590491,8.46153846 4.5,8.46153846" fill="#563E24"></path>
            </g>
        </g>
    </g>
</svg>