<?xml version="1.0" encoding="UTF-8"?>
<svg width="19px" height="20px" viewBox="0 0 19 20" version="1.1" xmlns="http://www.w3.org/2000/svg" xmlns:xlink="http://www.w3.org/1999/xlink">
    <!-- Generator: Sketch 57.1 (83088) - https://sketch.com -->
    <title>编组</title>
    <desc>Created with Sketch.</desc>
    <g id="页面-1" stroke="none" stroke-width="1" fill="none" fill-rule="evenodd">
        <g id="侧边栏v2.10.0" transform="translate(-20.000000, -608.000000)" fill="#000000" fill-rule="nonzero">
            <g id="编组" transform="translate(20.000000, 608.000000)">
                <path d="M7.44897959,7.11479592 C9.74234694,7.11479592 12.127551,6.60969388 13.5586735,5.6505102 L13.5586735,6.13010204 C13.5586735,6.49744898 13.8545918,6.79336735 14.2219388,6.79336735 C14.5892857,6.79336735 14.8852041,6.49744898 14.8852041,6.13010204 L14.8852041,3.56632653 C14.8852041,1.26020408 11.0535714,0.0178571429 7.44897959,0.0178571429 C3.84438776,0.0178571429 0.012755102,1.2627551 0.012755102,3.56632653 L0.012755102,14.0280612 C0.012755102,16.1862245 3.36989796,17.4132653 6.75510204,17.5612245 C7.13265306,17.5765306 7.44897959,17.2780612 7.44897959,16.9005102 C7.44897959,16.5459184 7.16836735,16.252551 6.81122449,16.2397959 C3.40306122,16.1045918 1.33928571,14.9030612 1.33928571,14.0280612 L1.33928571,10.8826531 C2.62755102,11.747449 4.68877551,12.2423469 6.76020408,12.3316327 C7.13520408,12.3469388 7.44897959,12.0459184 7.44897959,11.6709184 C7.44897959,11.3163265 7.16836735,11.0229592 6.81122449,11.0102041 C3.40306122,10.875 1.33928571,9.67346939 1.33928571,8.79846939 L1.33928571,5.6505102 C2.77040816,6.6122449 5.15561224,7.11479592 7.44897959,7.11479592 Z M7.44897959,1.34438776 C11.2346939,1.34438776 13.5586735,2.64030612 13.5586735,3.56887755 C13.5586735,4.49744898 11.2346939,5.79081633 7.44897959,5.79081633 C3.66326531,5.79081633 1.33928571,4.49489796 1.33928571,3.56887755 C1.33928571,2.6377551 3.66326531,1.34438776 7.44897959,1.34438776 Z M13.3928571,7.84183673 C10.0994898,7.84183673 8.37755102,9.10969388 8.37755102,10.3596939 L8.37755102,17.0816327 C8.37755102,18.3316327 10.0994898,19.5994898 13.3928571,19.5994898 C16.6607143,19.5994898 18.3826531,18.3520408 18.4081633,17.1096939 L18.4107143,17.1096939 L18.4107143,10.3596939 C18.4107143,9.10714286 16.6862245,7.84183673 13.3928571,7.84183673 L13.3928571,7.84183673 Z M13.3928571,9.16836735 C15.8265306,9.16836735 17.0816327,10.002551 17.0816327,10.3596939 C17.0816327,10.7168367 15.8265306,11.5510204 13.3928571,11.5510204 C10.9591837,11.5510204 9.70408163,10.7168367 9.70408163,10.3596939 C9.70408163,10.002551 10.9591837,9.16836735 13.3928571,9.16836735 L13.3928571,9.16836735 Z M13.3928571,18.2729592 C10.9591837,18.2729592 9.70408163,17.4387755 9.70408163,17.0816327 L9.70408163,15.4770408 C10.5459184,15.9336735 11.7806122,16.2372449 13.3928571,16.2372449 C15.005102,16.2372449 16.2397959,15.9336735 17.0816365,15.4770408 L17.0816365,17.0816327 C17.0841837,17.4387755 15.8290816,18.2729592 13.3928571,18.2729592 Z M13.3928571,14.9107201 C10.9591837,14.9107201 9.70408163,14.0765306 9.70408163,13.7193878 L9.70408163,12.1147959 C10.5459184,12.5714286 11.7806122,12.875 13.3928571,12.875 C15.005102,12.875 16.2397959,12.5714286 17.0816365,12.1147959 L17.0816365,13.7193878 C17.0841837,14.0765306 15.8290816,14.9132653 13.3928571,14.9107201 Z" id="形状"></path>
            </g>
        </g>
    </g>
</svg>