<svg width="20" height="15" xmlns="http://www.w3.org/2000/svg"><g><path d="M16.875 0H9.457c-.316 0-.633.105-.914.316L7.875.88c-.598.492-1.477.492-2.11 0L5.099.316C4.887.106 4.57 0 4.254 0H2.813A2.82 2.82 0 000 2.813v9.14a2.82 2.82 0 002.813 2.813h1.16c.457 0 .879-.211 1.125-.563 1.16-1.582 2.285-1.582 3.445 0 .281.352.703.563 1.125.563h7.207a2.82 2.82 0 002.813-2.813v-9.14A2.82 2.82 0 0016.875 0zm1.406 11.953a1.41 1.41 0 01-1.406 1.406H9.703c-.844-1.16-1.828-1.757-2.848-1.757-1.02 0-2.003.597-2.847 1.757H2.812a1.41 1.41 0 01-1.406-1.406v-9.14a1.41 1.41 0 011.407-1.407h1.44l.669.563a3.03 3.03 0 003.902 0l.668-.563h7.383a1.41 1.41 0 011.406 1.407v9.14z"/><path d="M7.031 4.219a.705.705 0 00-.703.703v1.406c0 .387.317.703.703.703a.705.705 0 00.703-.703V4.922a.705.705 0 00-.703-.703zm7.735.703h-4.22a.705.705 0 00-.702.703c0 .387.316.703.703.703h4.219a.705.705 0 00.703-.703.705.705 0 00-.703-.703zm0 3.516h-4.22a.705.705 0 00-.702.703c0 .386.316.703.703.703h4.219a.705.705 0 00.703-.703.705.705 0 00-.703-.704zM7.03 7.734a.705.705 0 00-.703.704v1.406c0 .386.317.703.703.703a.705.705 0 00.703-.703V8.438a.705.705 0 00-.703-.704z"/></g></svg>