<svg width="21" height="21" xmlns="http://www.w3.org/2000/svg"><g><path d="M7.449 7.115c2.293 0 4.679-.505 6.11-1.464v.48a.662.662 0 101.327 0V3.565c0-2.306-3.832-3.548-7.437-3.548C3.844.018.013 1.263.013 3.566v10.462c0 2.158 3.357 3.385 6.742 3.533a.661.661 0 10.056-1.321c-3.408-.135-5.472-1.337-5.472-2.212v-3.145c1.289.864 3.35 1.36 5.421 1.449a.661.661 0 10.051-1.321C3.403 10.874 1.34 9.672 1.34 8.797V5.651c1.431.961 3.817 1.464 6.11 1.464zm0-5.77c3.786 0 6.11 1.295 6.11 2.224 0 .928-2.324 2.222-6.11 2.222-3.786 0-6.11-1.296-6.11-2.222 0-.931 2.324-2.225 6.11-2.225z"/><g stroke="#000"><path d="M14 20.15c-3.383 0-6.15-2.767-6.15-6.15 0-3.383 2.767-6.15 6.15-6.15 3.383 0 6.15 2.767 6.15 6.15 0 3.383-2.767 6.15-6.15 6.15zm0-11.143c-2.746 0-4.993 2.247-4.993 4.993 0 2.746 2.247 4.993 4.993 4.993 2.746 0 4.993-2.247 4.993-4.993 0-2.746-2.247-4.993-4.993-4.993z" stroke-width=".3"/><path d="M17.037 16.348h0c.01.087.015.17.012.252a.5.5 0 01-.059.227.405.405 0 01-.174.163.686.686 0 01-.313.06c-.188.006-.321-.04-.394-.143-.068-.094-.115-.242-.143-.445l-.388-3.019c-.018-.104-.041-.15-.048-.15-.01 0-.042.05-.073.156l-.907 3.211a.605.605 0 01-.146.278c-.073.076-.203.111-.388.111-.095 0-.174-.007-.238-.022a.406.406 0 01-.166-.077.346.346 0 01-.099-.127 1.045 1.045 0 01-.055-.161l-.465-1.602c-.154-.528-.307-1.062-.458-1.603-.031-.111-.062-.165-.07-.165a.465.465 0 00-.043.158l-.38 2.962c-.028.21-.084.367-.169.472-.089.112-.245.165-.464.165-.182 0-.314-.055-.39-.168-.073-.11-.087-.288-.048-.533l.697-4.744a.771.771 0 01.23-.482.668.668 0 01.467-.172c.183 0 .34.048.467.144.13.097.231.285.31.563l.826 3.498.898-3.515c.073-.273.174-.457.307-.551a.764.764 0 01.454-.139c.169 0 .322.059.458.175.136.117.221.286.255.504l.697 4.719z" stroke-width=".1"/></g></g></svg>