<?xml version="1.0" encoding="UTF-8"?>
<svg width="20px" height="20px" viewBox="0 0 20 20" version="1.1" xmlns="http://www.w3.org/2000/svg" xmlns:xlink="http://www.w3.org/1999/xlink">
    <!-- Generator: Sketch 57.1 (83088) - https://sketch.com -->
    <title>share2</title>
    <desc>Created with Sketch.</desc>
    <g id="页面-1" stroke="none" stroke-width="1" fill="none" fill-rule="evenodd">
        <g id="文章详情_v2.12.0" transform="translate(-335.000000, -778.000000)" fill="#B2B2B2" fill-rule="nonzero">
            <g id="share2" transform="translate(335.000000, 778.000000)">
                <path d="M19.689401,0.125 C19.9368774,0.3025 20.0343682,0.5425 19.9893725,0.8375 L17.1321441,17.98 C17.0946476,18.195 16.974659,18.3625 16.7746781,18.4825 C16.6721878,18.54 16.554699,18.5725 16.4297108,18.5725 C16.3472187,18.5725 16.2572272,18.5525 16.1622363,18.515 L11.1077168,16.45 L8.40547364,19.745 C8.27048647,19.9175 8.08800382,20 7.85802568,20 C7.76303471,20 7.68054255,19.985 7.61054921,19.955 C7.47056252,19.9025 7.35557345,19.8175 7.27058153,19.6925 C7.18558961,19.57 7.14059388,19.435 7.14059388,19.285 L7.14059388,15.3925 L16.7821773,3.5725 L4.85331132,13.8975 L0.44623026,12.09 C0.1712564,11.9875 0.0212706575,11.7825 0.00127255859,11.475 C-0.0137260156,11.1775 0.103762816,10.9575 0.358738577,10.815 L18.9269734,0.1 C19.0394628,0.0325 19.1569516,0 19.2844395,0 C19.4344252,0 19.5694124,0.0425 19.689401,0.125 Z" id="路径"></path>
            </g>
        </g>
    </g>
</svg>