<svg width="20" height="17" xmlns="http://www.w3.org/2000/svg"><g><path d="M19.246 6.764h-1.185V5.487a2.51 2.51 0 00-2.507-2.507h-1.2v-.47A2.51 2.51 0 0011.847 0H.782a.757.757 0 00-.757.761v2.786a.747.747 0 00-.025.19v9.955a2.51 2.51 0 002.506 2.51h13.048a2.51 2.51 0 002.507-2.506v-1.483h1.185a.757.757 0 00.757-.757V7.52a.757.757 0 00-.757-.757zm-7.401-5.247a.994.994 0 01.992.993v.47H1.535V1.517h10.31zm4.7 12.175a1 1 0 01-.993.993H2.506a1 1 0 01-.993-.993V4.491h14.041a1 1 0 01.994.993v1.28h-2.952a.757.757 0 00-.757.757v3.935c0 .418.339.757.757.757h2.952l-.002 1.48zm1.945-2.99h-4.137V8.278h4.137v2.424z"/><path d="M14.807 8.782h1.615v1.514h-1.615z"/></g></svg>