<svg width="21" height="19" xmlns="http://www.w3.org/2000/svg"><g><path d="M18.628 0H1.39A1.39 1.39 0 000 1.39v13.435a1.39 1.39 0 001.39 1.388h.574l.038 2.115a.7.7 0 001.187.488l2.702-2.603h12.74a1.39 1.39 0 001.386-1.388V1.39A1.39 1.39 0 0018.628 0zM8.641 14.812l.233-4.904h2.268l.233 4.904H8.641zm9.974 0h-5.837l-.268-5.637a.7.7 0 00-.7-.668H8.207a.7.7 0 00-.7.668l-.268 5.637H5.605a.7.7 0 00-.487.2l-1.744 1.68-.021-1.191a.7.7 0 00-.7-.689H1.4V1.402h17.214v13.41z"/><path d="M5.404 5.404a.9.9 0 101.802 0 .9.9 0 00-1.802 0zM12.51 5.404a.9.9 0 101.802 0 .9.9 0 00-1.802 0z"/></g></svg>