<svg t="1568718638549" class="icon" viewBox="0 0 1024 1024" version="1.1" xmlns="http://www.w3.org/2000/svg" p-id="3847" width="200" height="200"><path d="M310.72 489.28a32 32 0 0 1-45.44 45.44l-128-128a32 32 0 0 1 0-45.44l128-128a32 32 0 1 1 45.44 45.44L205.12 384z" p-id="3848"></path><path d="M160 416a32 32 0 0 1 0-64h384a32 32 0 0 1 0 64z m553.28 118.72a32 32 0 0 1 45.44-45.44l128 128a32 32 0 0 1 0 45.44l-128 128a32 32 0 0 1-45.44-45.44L818.88 640z" p-id="3849"></path><path d="M864 608a32 32 0 0 1 0 64H480a32 32 0 0 1 0-64z" p-id="3850"></path></svg>