<?xml version="1.0" encoding="UTF-8"?>
<svg width="20px" height="20px" viewBox="0 0 20 20" version="1.1" xmlns="http://www.w3.org/2000/svg" xmlns:xlink="http://www.w3.org/1999/xlink">
    <g stroke="none" stroke-width="1" fill="none" fill-rule="evenodd">
        <g transform="translate(-20.000000, -560.000000)" fill="#000000" fill-rule="nonzero">
            <g transform="translate(20.000000, 560.000000)">
                <path d="M10,20 C4.5,20 0,15.5 0,10 C0,4.5 4.5,0 10,0 C15.5,0 20,4.5 20,10 C20,15.5 15.5,20 10,20 Z M10,1.42857143 C5.28571429,1.42857143 1.42857143,5.28571429 1.42857143,10 C1.42857143,14.7142857 5.28571429,18.5714286 10,18.5714286 C14.7142857,18.5714286 18.5714286,14.7142857 18.5714286,10 C18.5714286,5.28571429 14.7142857,1.42857143 10,1.42857143 Z M10,16.4285714 C9.60714286,16.4285714 9.28571429,16.1071429 9.28571429,15.7142857 L9.28571429,9.28571429 C9.28571429,8.89285714 9.60714286,8.57142857 10,8.57142857 C10.3928571,8.57142857 10.7142857,8.89285714 10.7142857,9.28571429 L10.7142857,15.7142857 C10.7142857,16.1071429 10.3928571,16.4285714 10,16.4285714 Z M13.5714286,13.5714286 L6.42857143,13.5714286 C6.03571429,13.5714286 5.71428571,13.25 5.71428571,12.8571429 C5.71428571,12.4642857 6.03571429,12.1428571 6.42857143,12.1428571 L13.5714286,12.1428571 C13.9642857,12.1428571 14.2857143,12.4642857 14.2857143,12.8571429 C14.2857143,13.25 13.9642857,13.5714286 13.5714286,13.5714286 Z M13.5714286,10 L6.42857143,10 C6.03571429,10 5.71428571,9.67857143 5.71428571,9.28571429 C5.71428571,8.89285714 6.03571429,8.57142857 6.42857143,8.57142857 L13.5714286,8.57142857 C13.9642857,8.57142857 14.2857143,8.89285714 14.2857143,9.28571429 C14.2857143,9.67857143 13.9642857,10 13.5714286,10 Z M10,10 C9.82142857,10 9.64285714,9.92857143 9.5,9.78571429 L5.96428571,6.25 C5.67857143,5.96428571 5.67857143,5.53571429 5.96428571,5.25 C6.25,4.96428571 6.67857143,4.96428571 6.96428571,5.25 L10.5,8.78571429 C10.7857143,9.07142857 10.7857143,9.5 10.5,9.78571429 C10.3571429,9.92857143 10.1785714,10 10,10 Z M10,10 C9.82142857,10 9.64285714,9.92857143 9.5,9.78571429 C9.21428571,9.5 9.21428571,9.07142857 9.5,8.78571429 L13.0357143,5.25 C13.3214286,4.96428571 13.75,4.96428571 14.0357143,5.25 C14.3214286,5.53571429 14.3214286,5.96428571 14.0357143,6.25 L10.5,9.78571429 C10.3571429,9.92857143 10.1785714,10 10,10 Z" id="形状"></path>
            </g>
        </g>
    </g>
</svg>