<svg width="22" height="15" xmlns="http://www.w3.org/2000/svg"><g><path d="M21.034 5.792c.01.077.016.157.016.241v6.633c0 1.136-1.025 2.059-2.281 2.059H3.23c-1.256 0-2.281-.923-2.281-2.059V6.033c.002-.833.56-1.582 1.38-1.854V2.56C2.394 1.377 2.92.95 4.074.95c.154 0 .308.015.46.043l14.743 2.802c1.04.2 1.777 1.037 1.757 1.997zM4.088 2.16c-.289.085-.364.198-.429.538l-.019.095-.045 1.181 10.63.1L4.256 2.18l-.043-.01-.03-.006a.198.198 0 00-.096-.003zm0 0s0 0 0 0h0s0 0 0 0zm15.588 10.504V6.033a.703.703 0 00-.004-.073c-.043-.414-.434-.737-.903-.737H3.23a.954.954 0 00-.653.25.763.763 0 00-.253.56v6.633c0 .447.405.81.906.811h15.537c.501 0 .906-.364.907-.81l.001-.002z" stroke="#000" stroke-width=".1"/><path d="M3.609 9.35c0 .465.419.843.936.843.517 0 .936-.378.936-.843 0-.465-.419-.843-.936-.843-.517 0-.936.378-.936.843z"/></g></svg>