<svg width="20" height="20" xmlns="http://www.w3.org/2000/svg"><g><path d="M10 20C4.5 20 0 15.5 0 10S4.5 0 10 0s10 4.5 10 10-4.5 10-10 10zm0-18.571c-4.714 0-8.571 3.857-8.571 8.571 0 4.714 3.857 8.571 8.571 8.571 4.714 0 8.571-3.857 8.571-8.571 0-4.714-3.857-8.571-8.571-8.571z"/><path d="M14.978 13.925c.018.14.025.275.02.405a.75.75 0 01-.087.341.592.592 0 01-.256.238c-.117.06-.28.09-.486.09-.288.01-.484-.058-.587-.202-.103-.144-.178-.379-.223-.704l-.647-5.035c-.036-.214-.09-.32-.162-.32-.072 0-.14.106-.203.32l-1.51 5.355a.926.926 0 01-.223.426c-.104.107-.3.16-.587.16-.153 0-.279-.011-.378-.035a.595.595 0 01-.243-.111.493.493 0 01-.141-.182 1.672 1.672 0 01-.088-.258l-.776-2.67c-.256-.879-.51-1.769-.762-2.67-.063-.224-.128-.336-.196-.336-.067 0-.12.112-.155.335l-.634 4.937c-.045.335-.133.583-.263.746-.13.163-.367.244-.709.244-.278 0-.472-.081-.58-.244-.108-.163-.13-.44-.067-.83l1.16-7.907c.045-.325.164-.576.358-.753A1.03 1.03 0 017.274 5c.288 0 .531.074.729.223.198.149.36.446.486.893l1.538 5.829 1.497-5.857c.117-.437.277-.728.48-.872A1.19 1.19 0 0112.711 5c.26 0 .497.09.708.272.211.181.344.444.398.788l1.16 7.865z"/></g></svg>