<svg width="18" height="20" xmlns="http://www.w3.org/2000/svg"><g><path d="M13.145.02L5.645 0C4.322 0 3.152 1.063 3.152 2.35l-.008.15-.723.017C1.1 2.517.02 3.714.02 5v12.5C.02 18.785 1.198 20 2.52 20h9.376c1.321 0 2.5-1.052 2.5-2.34v-.166l.625.006c1.321 0 2.5-1.214 2.5-2.5V5.014L13.145.02zm.005 17.584c0 .637-.6 1.146-1.255 1.146H2.519c-.655 0-1.25-.614-1.25-1.25V5c0-.637.536-1.23 1.192-1.23l.684-.02V15c0 1.286 1.178 2.5 2.5 2.5l7.505-.006v.11zm3.12-2.605c0 .638-.595 1.25-1.25 1.25H5.644c-.656 0-1.25-.612-1.25-1.25V2.5c0-.636.594-1.25 1.25-1.25h6.25c-.01 1.442 0 2.518 0 2.518 0 1.297 1.169 2.483 2.5 2.483h1.876V15zm-1.875-9.984c-.666 0-1.25-1.224-1.25-1.873V1.268l3.125 3.747h-1.875z"/><path d="M13.145 13.132H7.52a.625.625 0 110-1.249h5.625a.624.624 0 010 1.249zM13.145 10.01H7.52a.625.625 0 110-1.25h5.625a.624.624 0 010 1.25z"/></g></svg>