<?xml version="1.0" encoding="UTF-8" standalone="no"?>
<svg
   xmlns:dc="http://purl.org/dc/elements/1.1/"
   xmlns:cc="http://creativecommons.org/ns#"
   xmlns:rdf="http://www.w3.org/1999/02/22-rdf-syntax-ns#"
   xmlns:svg="http://www.w3.org/2000/svg"
   xmlns="http://www.w3.org/2000/svg"
   version="1.1"
   id="Capa_1"
   width="18"
   height="18"
   x="0px"
   y="0px"
   viewBox="0 0 18 18"
   xml:space="preserve">
	<path
   d="M 17.270238,8.1910563 C 17.61059,7.844853 17.730733,7.3367509 17.58393,6.8644257 17.436779,6.3921004 17.053493,6.0549316 16.582608,5.9833782 L 12.3959,5.3484313 C 12.217588,5.321328 12.063513,5.2046016 11.983877,5.0358366 L 10.112116,1.0761827 C 9.9019504,0.63132234 9.4753853,0.35486584 9.0000007,0.35486584 c -0.4750384,0 -0.9016035,0.2764565 -1.1117698,0.72131686 L 6.0161227,5.0358366 C 5.9364881,5.2046016 5.7820658,5.3213277 5.6037534,5.3484313 L 1.4170446,5.9837395 C 0.94650719,6.0549316 0.56322185,6.3921004 0.41607075,6.8644257 0.2692659,7.3367509 0.38941044,7.844853 0.72976228,8.1910563 L 3.7589976,11.272915 c 0.1291467,0.131542 0.1883534,0.320907 0.1578844,0.505934 l -0.7149811,4.352114 c -0.080328,0.488948 0.1083724,0.973561 0.4930427,1.265556 0.384324,0.292359 0.8846379,0.330303 1.3060092,0.09865 l 3.7442168,-2.054815 c 0.1596156,-0.08746 0.3500465,-0.08746 0.5096622,0 l 3.7445612,2.054815 c 0.182814,0.10046 0.380862,0.149973 0.577872,0.149973 0.255869,0 0.5107,-0.08348 0.728138,-0.248631 0.38467,-0.291995 0.573369,-0.776608 0.493042,-1.265556 l -0.715327,-4.351753 c -0.03047,-0.185388 0.02874,-0.374392 0.157885,-0.505932 z m -3.869208,3.7103017 0.714981,4.351752 c 0.03601,0.218997 -0.04536,0.428236 -0.217783,0.559057 -0.172774,0.130459 -0.387787,0.146357 -0.576487,0.04372 L 9.5771793,14.800716 c -0.1803901,-0.09866 -0.3791306,-0.148527 -0.5771786,-0.148527 -0.1980481,0 -0.3964424,0.04987 -0.5771786,0.148888 L 4.6789516,16.855893 C 4.4895595,16.958524 4.2745458,16.942626 4.1021193,16.812172 3.9296929,16.681346 3.8486731,16.472469 3.8843359,16.25311 l 0.714981,-4.351752 c 0.068901,-0.419925 -0.0644,-0.848523 -0.356625,-1.145579 L 1.2131104,7.6735582 C 1.0604195,7.5181644 1.0084838,7.2991673 1.0746152,7.0877593 1.1404006,6.8759899 1.305556,6.7307145 1.5164149,6.6985515 L 5.7027773,6.0636047 C 6.1068369,6.0025314 6.456191,5.7380004 6.6365809,5.355659 L 8.5086891,1.3960052 c 0.094175,-0.1994825 0.2780291,-0.3183769 0.4909654,-0.3183769 0.2132825,0 0.3967886,0.1188944 0.4913119,0.3183769 L 11.363074,5.355659 c 0.180389,0.3823414 0.529397,0.6468724 0.933457,0.7079457 l 4.186708,0.6349468 c 0.210858,0.032162 0.376015,0.1774384 0.441799,0.3892078 0.06578,0.211408 0.0142,0.4304051 -0.138494,0.5857989 l -3.029235,3.0818588 c -0.292226,0.297418 -0.425527,0.725653 -0.356279,1.145941 z"
   id="path2" stroke="#000000" stroke-width="0.7" />
</svg>