<svg width="20" height="20" xmlns="http://www.w3.org/2000/svg"><path d="M19.338 7.643l-1.548.901c.087.474.144.957.144 1.456s-.057.983-.144 1.456l1.548.901a1.34 1.34 0 0 1 .484 1.822l-1.322 2.31a1.317 1.317 0 0 1-1.806.487l-1.564-.91a7.909 7.909 0 0 1-2.485 1.469v1.132c0 .736-.592 1.333-1.323 1.333H8.678c-.73 0-1.323-.597-1.323-1.333v-1.132a7.91 7.91 0 0 1-2.485-1.47l-1.564.911a1.316 1.316 0 0 1-1.806-.488l-1.322-2.31a1.34 1.34 0 0 1 .484-1.82l1.548-.902A8.04 8.04 0 0 1 2.066 10c0-.499.057-.983.144-1.456L.662 7.643A1.34 1.34 0 0 1 .178 5.82L1.5 3.512a1.316 1.316 0 0 1 1.806-.488l1.564.91a7.908 7.908 0 0 1 2.485-1.47v-1.13C7.355.596 7.947 0 8.678 0h2.644c.73 0 1.323.597 1.323 1.333v1.132c.923.33 1.754.842 2.485 1.47l1.564-.911a1.316 1.316 0 0 1 1.806.488l1.322 2.31a1.34 1.34 0 0 1-.484 1.82zm-.991-1.732l-.661-1.155a.658.658 0 0 0-.904-.244l-1.837 1.07a6.588 6.588 0 0 0-3.623-2.115V2a.664.664 0 0 0-.66-.667H9.338A.664.664 0 0 0 8.678 2v1.467a6.588 6.588 0 0 0-3.623 2.114l-1.837-1.07a.658.658 0 0 0-.904.245l-.66 1.155a.67.67 0 0 0 .241.91L3.74 7.895A6.671 6.671 0 0 0 3.388 10c0 .738.132 1.442.352 2.105l-1.845 1.074a.67.67 0 0 0-.242.91l.661 1.155a.658.658 0 0 0 .904.244l1.837-1.07a6.587 6.587 0 0 0 3.623 2.115V18c0 .368.296.667.66.667h1.323a.664.664 0 0 0 .661-.667v-1.467a6.588 6.588 0 0 0 3.623-2.114l1.837 1.069c.317.184.721.075.904-.244l.66-1.155a.67.67 0 0 0-.241-.91l-1.845-1.074A6.67 6.67 0 0 0 16.612 10a6.67 6.67 0 0 0-.352-2.105l1.845-1.074a.67.67 0 0 0 .242-.91zM10 13.333c-1.826 0-3.306-1.492-3.306-3.333 0-1.84 1.48-3.333 3.306-3.333S13.306 8.159 13.306 10c0 1.84-1.48 3.333-3.306 3.333zM10 8a1.992 1.992 0 0 0-1.983 2c0 1.105.888 2 1.983 2a1.992 1.992 0 0 0 1.983-2c0-1.105-.888-2-1.983-2z"/></svg>